<svg width="31" height="32" viewBox="0 0 31 32" fill="none" xmlns="http://www.w3.org/2000/svg">
<rect width="31" height="32" rx="3" fill="#ED3237"/>
<path d="M8 11.0738C8 11.5682 8.39868 11.9673 8.89285 11.9673H9.36899V22.521C9.36899 24.1471 10.6845 25.4633 12.3035 25.4633H19.6965C21.3155 25.4633 22.631 24.1471 22.631 22.521V11.9673H23.1072C23.6013 11.9673 24 11.5682 24 11.0738C24 10.5794 23.6013 10.1805 23.1072 10.1805H19.9821V9.25738C19.9821 8.0126 18.9701 7 17.7263 7H14.2737C13.0296 7 12.0179 8.0126 12.0179 9.25738V10.1805H8.89285C8.39868 10.1805 8 10.5794 8 11.0738ZM19.1131 14.5045V21.1393C19.1131 21.6337 18.7144 22.0326 18.2202 22.0326C17.7263 22.0326 17.3274 21.6337 17.3274 21.1393V14.5045C17.3274 14.0101 17.7263 13.611 18.2202 13.611C18.7144 13.611 19.1131 14.0101 19.1131 14.5045ZM13.8036 9.25738C13.8036 8.99516 14.012 8.78681 14.2737 8.78681H17.7263C17.988 8.78681 18.1964 8.99516 18.1964 9.25738V10.1805H13.8036V9.25738ZM12.8869 14.5045C12.8869 14.0101 13.2856 13.611 13.7798 13.611C14.2737 13.611 14.6726 14.0101 14.6726 14.5045V21.1393C14.6726 21.6337 14.2737 22.0326 13.7798 22.0326C13.2856 22.0326 12.8869 21.6337 12.8869 21.1393V14.5045Z" fill="white"/>
</svg>
